<?xml version="1.0" encoding="iso-8859-1"?>
<!-- Uploaded to: SVG Repo, www.svgrepo.com, Generator: SVG Repo Mixer Tools -->
<svg version="1.1" id="Layer_1" xmlns="http://www.w3.org/2000/svg" xmlns:xlink="http://www.w3.org/1999/xlink" 
	 viewBox="0 0 509.287 509.287" xml:space="preserve">
<circle style="fill:#F1F3F7;" cx="254.644" cy="254.644" r="254.644"/>
<g>
	<path style="fill:#6EB1E1;" d="M125.118,392.646H75.952c-13.563,0-24.413-11.189-24.413-24.413V141.054
		c0-13.563,11.189-24.413,24.413-24.413h49.166v11.868H75.952c-7.121,0-12.885,5.764-12.885,12.885v226.84
		c0,7.121,5.764,12.885,12.885,12.885h49.166V392.646z"/>
	<path style="fill:#6EB1E1;" d="M433.335,260.408H384.17V248.54h49.166c7.121,0,12.885-5.764,12.885-12.885v-94.601
		c0-7.121-5.764-12.885-12.885-12.885H384.17v-11.868h49.166c13.563,0,24.413,11.189,24.413,24.413v94.94
		C457.748,249.558,446.898,260.408,433.335,260.408z"/>
</g>
<path style="fill:#646B79;" d="M392.646,73.918H116.641c-9.155,0-16.615,7.46-16.615,16.615v64.085
	c0,9.155,7.46,16.615,16.615,16.615h276.005c9.155,0,16.615-7.46,16.615-16.615V90.532
	C409.261,81.377,401.801,73.918,392.646,73.918z"/>
<circle style="fill:#6EB1E1;" cx="146.479" cy="122.405" r="17.971"/>
<g>
	<rect x="196.323" y="104.434" style="fill:#414753;" width="6.781" height="36.281"/>
	<rect x="215.989" y="104.434" style="fill:#414753;" width="6.781" height="36.281"/>
	<rect x="235.995" y="104.434" style="fill:#414753;" width="6.781" height="36.281"/>
	<rect x="255.661" y="104.434" style="fill:#414753;" width="6.781" height="36.281"/>
	<rect x="275.327" y="104.434" style="fill:#414753;" width="6.781" height="36.281"/>
	<rect x="295.332" y="104.434" style="fill:#414753;" width="6.781" height="36.281"/>
	<rect x="314.999" y="104.434" style="fill:#414753;" width="6.781" height="36.281"/>
	<rect x="334.665" y="104.434" style="fill:#414753;" width="6.781" height="36.281"/>
	<rect x="354.331" y="104.434" style="fill:#414753;" width="6.781" height="36.281"/>
	<rect x="374.336" y="104.434" style="fill:#414753;" width="6.781" height="36.281"/>
</g>
<path style="fill:#646B79;" d="M392.646,206.156H116.641c-9.155,0-16.615,7.46-16.615,16.615v64.085
	c0,9.155,7.46,16.615,16.615,16.615h276.005c9.155,0,16.615-7.46,16.615-16.615v-64.424
	C409.261,213.616,401.801,206.156,392.646,206.156z"/>
<circle style="fill:#6EB1E1;" cx="146.479" cy="254.644" r="17.971"/>
<g>
	<rect x="196.323" y="236.673" style="fill:#414753;" width="6.781" height="36.281"/>
	<rect x="215.989" y="236.673" style="fill:#414753;" width="6.781" height="36.281"/>
	<rect x="235.995" y="236.673" style="fill:#414753;" width="6.781" height="36.281"/>
	<rect x="255.661" y="236.673" style="fill:#414753;" width="6.781" height="36.281"/>
	<rect x="275.327" y="236.673" style="fill:#414753;" width="6.781" height="36.281"/>
	<rect x="295.332" y="236.673" style="fill:#414753;" width="6.781" height="36.281"/>
	<rect x="314.999" y="236.673" style="fill:#414753;" width="6.781" height="36.281"/>
	<rect x="334.665" y="236.673" style="fill:#414753;" width="6.781" height="36.281"/>
	<rect x="354.331" y="236.673" style="fill:#414753;" width="6.781" height="36.281"/>
	<rect x="374.336" y="236.673" style="fill:#414753;" width="6.781" height="36.281"/>
</g>
<path style="fill:#646B79;" d="M392.646,338.056H116.641c-9.155,0-16.615,7.46-16.615,16.615v64.085
	c0,9.155,7.46,16.615,16.615,16.615h276.005c9.155,0,16.615-7.46,16.615-16.615V354.67
	C409.261,345.515,401.801,338.056,392.646,338.056z"/>
<circle style="fill:#6EB1E1;" cx="146.479" cy="386.882" r="17.971"/>
<g>
	<rect x="196.323" y="368.572" style="fill:#414753;" width="6.781" height="36.281"/>
	<rect x="215.989" y="368.572" style="fill:#414753;" width="6.781" height="36.281"/>
	<rect x="235.995" y="368.572" style="fill:#414753;" width="6.781" height="36.281"/>
	<rect x="255.661" y="368.572" style="fill:#414753;" width="6.781" height="36.281"/>
	<rect x="275.327" y="368.572" style="fill:#414753;" width="6.781" height="36.281"/>
	<rect x="295.332" y="368.572" style="fill:#414753;" width="6.781" height="36.281"/>
	<rect x="314.999" y="368.572" style="fill:#414753;" width="6.781" height="36.281"/>
	<rect x="334.665" y="368.572" style="fill:#414753;" width="6.781" height="36.281"/>
	<rect x="354.331" y="368.572" style="fill:#414753;" width="6.781" height="36.281"/>
	<rect x="374.336" y="368.572" style="fill:#414753;" width="6.781" height="36.281"/>
</g>
</svg>